<svg width="30" height="30" viewBox="0 0 30 30" fill="none" xmlns="http://www.w3.org/2000/svg">
<path fill-rule="evenodd" clip-rule="evenodd" d="M9.5 10.7391C12.1825 10.7391 14.3571 8.55895 14.3571 5.86957C14.3571 3.18018 12.1825 1 9.5 1C6.81748 1 4.64286 3.18018 4.64286 5.86957C4.64286 8.55895 6.81748 10.7391 9.5 10.7391ZM9.5 11.9565C4.80558 11.9565 1 15.7718 1 20.4783V25.3478C1 27.3649 2.63096 29 4.64286 29H14.3571C16.369 29 18 27.3649 18 25.3478V20.4783C18 15.7718 14.1944 11.9565 9.5 11.9565Z" fill="url(#paint0_linear_158_87)"/>
<mask id="mask0_158_87" style="mask-type:alpha" maskUnits="userSpaceOnUse" x="1" y="1" width="17" height="28">
<path fill-rule="evenodd" clip-rule="evenodd" d="M9.5 10.7391C12.1825 10.7391 14.3571 8.55895 14.3571 5.86957C14.3571 3.18018 12.1825 1 9.5 1C6.81748 1 4.64286 3.18018 4.64286 5.86957C4.64286 8.55895 6.81748 10.7391 9.5 10.7391ZM9.5 11.9565C4.80558 11.9565 1 15.7718 1 20.4783V25.3478C1 27.3649 2.63096 29 4.64286 29H14.3571C16.369 29 18 27.3649 18 25.3478V20.4783C18 15.7718 14.1944 11.9565 9.5 11.9565Z" fill="url(#paint1_linear_158_87)"/>
</mask>
<g mask="url(#mask0_158_87)">
<g filter="url(#filter0_f_158_87)">
<path fill-rule="evenodd" clip-rule="evenodd" d="M23.3055 23.9414C22.0788 25.3544 19.9182 25.3526 18.6937 23.9375L14.5441 19.1419C14.1313 18.6649 13.87 18.0711 13.7946 17.439L13.0225 10.967C12.865 9.64709 13.5431 8.37254 14.7856 7.97587C16.2583 7.5057 18.4374 7 20.9975 7C23.5607 7 25.7421 7.50696 27.2149 7.97762C28.4546 8.37381 29.1324 9.64444 28.9784 10.962L28.2223 17.4318C28.1479 18.0683 27.8849 18.6665 27.4685 19.1462L23.3055 23.9414Z" fill="black" fill-opacity="0.4"/>
</g>
</g>
<path fill-rule="evenodd" clip-rule="evenodd" d="M23.3055 23.9414C22.0788 25.3544 19.9182 25.3526 18.6937 23.9375L14.5441 19.1419C14.1313 18.6649 13.87 18.0711 13.7946 17.439L13.0225 10.967C12.865 9.64709 13.5431 8.37254 14.7856 7.97587C16.2583 7.5057 18.4374 7 20.9975 7C23.5607 7 25.7421 7.50696 27.2149 7.97762C28.4546 8.37381 29.1324 9.64444 28.9784 10.962L28.2223 17.4318C28.1479 18.0683 27.8849 18.6665 27.4685 19.1462L23.3055 23.9414Z" fill="url(#paint2_linear_158_87)"/>
<path fill-rule="evenodd" clip-rule="evenodd" d="M25.6089 11.252C26.0677 11.6387 26.1333 12.33 25.7554 12.7961L21.0467 18.6043C20.7941 18.916 20.4071 19.048 20.0412 18.9856C19.7439 18.9516 19.4628 18.7921 19.2804 18.5223L17.1862 15.424C16.8508 14.9277 16.9761 14.2462 17.4662 13.9017C17.9563 13.5573 18.6255 13.6804 18.961 14.1766L20.2698 16.113L24.0941 11.3957C24.472 10.9296 25.1502 10.8653 25.6089 11.252Z" fill="white"/>
<defs>
<filter id="filter0_f_158_87" x="3" y="-3" width="36" height="38" filterUnits="userSpaceOnUse" color-interpolation-filters="sRGB">
<feFlood flood-opacity="0" result="BackgroundImageFix"/>
<feBlend mode="normal" in="SourceGraphic" in2="BackgroundImageFix" result="shape"/>
<feGaussianBlur stdDeviation="5" result="effect1_foregroundBlur_158_87"/>
</filter>
<linearGradient id="paint0_linear_158_87" x1="6.5" y1="4" x2="15.0205" y2="17.9875" gradientUnits="userSpaceOnUse">
<stop stop-color="#0A85ED"/>
<stop offset="1" stop-color="#0C63E7"/>
</linearGradient>
<linearGradient id="paint1_linear_158_87" x1="8.28571" y1="2.21739" x2="15.6053" y2="25.3371" gradientUnits="userSpaceOnUse">
<stop stop-color="#0A85ED"/>
<stop offset="1" stop-color="#0C63E7"/>
</linearGradient>
<linearGradient id="paint2_linear_158_87" x1="29" y1="7" x2="13.1668" y2="25.1455" gradientUnits="userSpaceOnUse">
<stop stop-color="#07C8F9"/>
<stop offset="1" stop-color="#09A6F3"/>
</linearGradient>
</defs>
</svg>
